<svg xmlns="http://www.w3.org/2000/svg" xmlns:xlink="http://www.w3.org/1999/xlink" version="1.1" x="0px" y="0px" viewBox="0 0 100 100" enable-background="new 0 0 100 100" xml:space="preserve"><rect x="108" y="-19" width="15" height="2"></rect><path d="M125.5-10c-1.379,0-2.5-1.121-2.5-2.5v-10c0-1.378,1.121-2.5,2.5-2.5s2.5,1.122,2.5,2.5v10C128-11.121,126.879-10,125.5-10z   M125.5-24c-0.827,0-1.5,0.673-1.5,1.5v10c0,0.827,0.673,1.5,1.5,1.5s1.5-0.673,1.5-1.5v-10C127-23.327,126.327-24,125.5-24z"></path><path d="M129.5-9.5c-1.379,0-2.5-1.249-2.5-2.785v-11.429c0-1.536,1.121-2.786,2.5-2.786s2.5,1.25,2.5,2.786v11.429  C132-10.749,130.879-9.5,129.5-9.5z M129.5-25.5c-0.827,0-1.5,0.801-1.5,1.786v11.429c0,0.984,0.673,1.785,1.5,1.785  s1.5-0.801,1.5-1.785v-11.429C131-24.699,130.327-25.5,129.5-25.5z"></path><path d="M133.5-10c-1.379,0-2.5-1.121-2.5-2.5v-10c0-1.378,1.121-2.5,2.5-2.5s2.5,1.122,2.5,2.5v10C136-11.121,134.879-10,133.5-10z   M133.5-24c-0.827,0-1.5,0.673-1.5,1.5v10c0,0.827,0.673,1.5,1.5,1.5s1.5-0.673,1.5-1.5v-10C135-23.327,134.327-24,133.5-24z"></path><rect x="194" y="-19" width="14" height="2"></rect><path d="M192.5-10c-1.379,0-2.5-1.121-2.5-2.5v-10c0-1.378,1.121-2.5,2.5-2.5s2.5,1.122,2.5,2.5v10C195-11.121,193.879-10,192.5-10z   M192.5-24c-0.827,0-1.5,0.673-1.5,1.5v10c0,0.827,0.673,1.5,1.5,1.5s1.5-0.673,1.5-1.5v-10C194-23.327,193.327-24,192.5-24z"></path><path d="M188.5-9.5c-1.379,0-2.5-1.25-2.5-2.786v-11.429c0-1.536,1.121-2.785,2.5-2.785s2.5,1.25,2.5,2.785v11.429  C191-10.75,189.879-9.5,188.5-9.5z M188.5-25.5c-0.827,0-1.5,0.801-1.5,1.785v11.429c0,0.985,0.673,1.786,1.5,1.786  s1.5-0.801,1.5-1.786v-11.429C190-24.699,189.327-25.5,188.5-25.5z"></path><path d="M184.5-10c-1.379,0-2.5-1.121-2.5-2.5v-10c0-1.378,1.121-2.5,2.5-2.5s2.5,1.122,2.5,2.5v10C187-11.121,185.879-10,184.5-10z   M184.5-24c-0.827,0-1.5,0.673-1.5,1.5v10c0,0.827,0.673,1.5,1.5,1.5s1.5-0.673,1.5-1.5v-10C186-23.327,185.327-24,184.5-24z"></path><rect x="135" y="-19" width="20" height="2"></rect><path d="M159,18.5c-2.142,0-3.707-0.582-4.783-1.778c-2.515-2.795-1.896-8.632-1.115-16.021c0.568-5.377,1.213-11.464,0.908-17.982  c-0.34-0.114-1.336-0.23-3.982-0.23c-0.867,0-1.798,0.011-2.729,0.021c-0.938,0.011-1.875,0.021-2.752,0.021  c-4.01,0-5.047-0.212-5.047-1.031c0-5.84,0.395-20.259,4.048-27.997c3.81-8.07,10.644-9.003,15.452-9.003  c4.81,0,11.644,0.933,15.452,9.003c3.653,7.739,4.048,22.157,4.048,27.997c0,0.79-0.562,0.923-8.265,1.006  c-2.678,0.029-6.275,0.068-7.206,0.283c-0.201,6.435,0.486,12.52,1.094,17.898c0.851,7.526,1.522,13.471-0.917,16.201  C162.237,17.973,160.861,18.5,159,18.5z M150.027-18.512c4.18,0,4.936,0.259,4.973,0.987c0.33,6.669-0.326,12.864-0.904,18.33  c-0.756,7.143-1.352,12.784,0.865,15.248c0.875,0.974,2.197,1.447,4.039,1.447c1.56,0,2.691-0.418,3.46-1.278  c2.142-2.396,1.492-8.145,0.67-15.423c-0.62-5.487-1.323-11.707-1.091-18.316c0.027-0.766,0.585-0.895,8.186-0.977  c2.701-0.029,6.327-0.068,7.275-0.287c-0.013-5.941-0.441-19.854-3.952-27.29c-3.526-7.472-9.627-8.43-14.548-8.43  c-4.92,0-11.021,0.958-14.548,8.43c-3.526,7.468-3.942,21.469-3.952,27.367c0.35,0.117,1.365,0.235,4.047,0.235  c0.873,0,1.807-0.011,2.74-0.021C148.223-18.501,149.156-18.512,150.027-18.512z"></path><polyline points="173.333,-58 176.667,-54 178.889,-63 180,-62 177.777,-51 173.333,-55 171.111,-50 170,-51 173.333,-58   176.667,-54 "></polyline><path fill="none" stroke="#000000" stroke-miterlimit="10" d="M149-32"></path><path fill="none" stroke="#000000" stroke-miterlimit="10" d="M155-31"></path><path fill="none" stroke="#000000" stroke-miterlimit="10" d="M154-17"></path><path fill="none" stroke="#000000" stroke-miterlimit="10" d="M154-5"></path><path d="M155-16.965l-12-0.836v-0.467c0-1.008-0.224-1.952-0.231-2.843c-0.04-4.425-0.177-7.631,0.938-10.907  c0.099-1.805,3.042-4.481,5.639-4.481c1.26,0,4.179,1.167,5.085,3.305c1.053,2.487,0.902,5.866,0.729,10.144  C155.088-21.289,155-19.467,155-17.5V-16.965z M143.569-18.736l10.433,0.702c0.012-1.783,0.079-3.445,0.145-5.057  c0.168-4.152,0.301-7.433-0.664-9.713c-0.711-1.677-3.26-2.695-4.191-2.695c-2.16,0-4.695,2.361-4.695,3.572l-0.027,0.163  c-1.083,3.139-1.055,6.287-1.016,10.645C143.561-20.366,143.567-19.574,143.569-18.736z"></path><path fill="none" stroke="#000000" stroke-miterlimit="10" d="M168.039-32"></path><path fill="none" stroke="#000000" stroke-miterlimit="10" d="M162.039-31"></path><path fill="none" stroke="#000000" stroke-miterlimit="10" d="M163.039-17"></path><path d="M162-16.965V-17.5c0-1.967-0.055-3.789-0.126-5.551c-0.174-4.278-0.301-7.657,0.753-10.144  c0.906-2.139,3.856-3.305,5.116-3.305c2.597,0,5.597,2.676,5.694,4.481c1.115,3.275,0.853,6.479,0.812,10.901  c-0.008,0.893-0.25,1.838-0.25,2.849v0.467L162-16.965z M167.748-35.5c-0.932,0-3.48,1.018-4.191,2.695  c-0.966,2.28-0.832,5.561-0.664,9.713c0.065,1.612,0.133,3.274,0.145,5.057l10.433-0.702c0.002-0.839,0.009-1.634,0.016-2.391  c0.04-4.354,0.068-7.501-1.015-10.638l-0.027-0.163C172.443-33.139,169.909-35.5,167.748-35.5z"></path><path d="M152-23c0-5.799-1.344-6-3-6s-3,0.201-3,6s1.344,5,3,5S152-17.201,152-23z"></path><path d="M165-23c0-5.799,1.344-6,3-6s3,0.201,3,6s-1.344,5-3,5S165-17.201,165-23z"></path><rect x="163" y="-19" width="20" height="2"></rect><path fill="#000000" stroke="#010101" stroke-width="0.0215" d="M45.254,5.646c0.655,1.1,1.717,1.812,2.648,2.622  c-1.059-0.356-2.059-0.846-3.083-1.274c-0.087,0.059-0.238,0.176-0.325,0.235c1.074,1.079,1.745,2.503,2.964,3.433  c-0.126,0.213-0.24,0.416-0.377,0.618c1.505,1.069,2.633,2.538,3.742,3.984c1.286,1.645,3.108,2.823,4.221,4.626  c1.015,1.85,2.539,3.338,3.556,5.167c0.52,0.881,1.012,1.551,1.785,1.93c0.59,1.159,1.484,2.14,1.604,3.505  c-2.45,1.12-5.098,1.505-7.703,2.169c-1.803,0.494-3.775,0.427-5.489,1.239c0.798,0.552,1.773,0.486,2.677,0.207  c0.724,0.78,1.829,0.835,2.804,0.592c-0.01,0.188-0.02,0.376-0.039,0.573c0.634,0.063,1.27,0.105,1.905,0.147  c0.054,0.171,0.108,0.341,0.173,0.521c0.929,0.235,1.783,0.696,2.714,0.932c0.732,0.173,0.976,0.969,1.464,1.443  c1.012,0.877,1.639,2.122,2.003,3.405c0.067,0.317,0.407,0.429,0.66,0.577c0.179,0.615,0.346,1.241,0.63,1.819  c0.163-0.326,0.327-0.674,0.419-1.034c0.67-3.135,1.061-6.314,1.762-9.438c0.012-0.448,0.674-0.51,0.932-0.225  c1.145,1.136,2.875,1.243,4.181,2.114c0.484,0.339,0.959,0.686,1.477,0.974c4.794,1.998,8.914,5.28,13.777,7.136  c0.781,0.269,1.317,1.038,2.159,1.154c0.862,0.116,1.487,0.765,2.197,1.198c0.022-0.24,0.056-0.467,0.077-0.707  c0.609,0.563,1.174,1.21,1.94,1.551c-0.158-0.594-0.422-1.172-0.719-1.72c0.485,0.338,0.971,0.677,1.477,0.995  c-0.374-1.493-1.423-2.676-2.216-3.949c0.517,0.329,1.044,0.648,1.583,0.938c-0.464-1.373-1.595-2.361-2.504-3.431  c-2.036-2.32-4.382-4.341-6.615-6.482c-1.687-1.381-3.745-2.248-5.788-2.989c-1.72-0.735-3.429-1.479-5.078-2.378  c0.279-0.944,0.527-1.541,0.955-2.138c0.18,0.177,0.349,0.363,0.539,0.529c-0.058-0.526-0.248-1.11-0.816-1.254  c-1.421-0.845-3.138,0.448-4.501-0.51c-0.57-0.3-0.907-0.893-1.278-1.392c-1.055-1.476-2.076-3.002-2.904-4.622  c-1.088-1.864-2.462-3.647-4.36-4.758c-2.108-1.319-4.104-2.821-6.313-3.988c-1.905-0.985-3.584-2.335-5.419-3.462  c0.182,0.751,0.771,1.293,1.2,1.901C48.357,7.339,46.915,6.273,45.254,5.646z"></path><path fill="#000000" stroke="#010101" stroke-width="0.0215" d="M56.844,13.648c0.073-0.062,0.169-0.097,0.285-0.085  c0.734-0.046,1.477-0.04,2.201,0.122c0.764,0.185,1.163,0.979,1.823,1.357c0.457,0.284,1.05,0.345,1.426,0.762  c0.713,1.009,1.016,2.247,1.783,3.206c0.952,1.229,1.915,2.448,2.792,3.727c0.598,0.794,1.088,1.844,2.164,2.085  c1.35,0.393,2.701,0.765,4.076,1.074c-0.298,0.706-0.604,1.401-0.818,2.133c2.086,1.141,4.264,2.119,6.34,3.248  c0.96,0.665,2.19,0.507,3.151,1.151c0.678,0.464,1.222,1.087,1.843,1.619c0.357,0.375,0.866,0.651,0.997,1.17  c0.204,0.513-0.331,0.956-0.497,1.365c0.167-0.012,0.324-0.015,0.492-0.026c-0.007,0.146-0.025,0.302-0.023,0.458  c-2.038,0.41-3.916-0.72-5.741-1.439c-1.849-0.857-3.83-1.375-5.766-1.974c-0.933-0.592-2.045-0.721-3.117-0.806  c-0.052-0.377-0.08-0.797-0.554-0.833c-0.475-0.036-1.677-0.137-2.421,0.317c-1.338,0.811-2.441,1.968-3.828,2.702  c-0.998,0.525-1.958,1.095-2.908,1.694c-0.384-0.271-0.788-0.542-1.193-0.813c0.422-1.934,1.239-3.827,2.698-5.186  c0.459-0.614,0.91-1.235,0.862-2.213c-0.107-0.875-0.204-1.03-0.266-1.531c-0.07-0.475-0.119-0.969-0.337-1.408  c-0.19-0.365-0.588-0.584-0.714-0.987c-0.195-0.925-0.627-1.758-1.013-2.529c-0.672-1.163-0.904-2.565-1.793-3.614  c-0.716-1.364-1.763-2.587-2.093-4.12C56.628,14.062,56.682,13.787,56.844,13.648L56.844,13.648z"></path><path fill="#000000" stroke="#010101" stroke-width="0.0215" d="M72.6,25.01c0.086-0.079,0.157,0.028,0.235,0.197  c-0.126,0.214-0.298,0.218-0.391-0.017c0.028-0.056,0.07-0.154,0.099-0.181H72.6z"></path><path fill="#000000" stroke="#010101" stroke-width="0.0215" d="M9.152,9.653c0.352,0.93,1.066,1.62,1.667,2.367  c-0.761-0.417-1.458-0.928-2.184-1.396c-0.074,0.033-0.206,0.102-0.28,0.135c0.674,0.973,0.992,2.154,1.797,3.031  c-0.125,0.146-0.241,0.286-0.373,0.421c1.005,1.023,1.667,2.302,2.317,3.559c0.759,1.434,1.991,2.584,2.596,4.115  c0.523,1.554,1.485,2.9,2.013,4.438c0.277,0.744,0.562,1.324,1.102,1.72c0.292,0.968,0.843,1.84,0.747,2.9  c-2.027,0.521-4.104,0.454-6.188,0.605C10.921,31.679,9.421,31.359,8,31.746c0.534,0.53,1.29,0.615,2.018,0.524  c0.447,0.694,1.285,0.888,2.064,0.836c-0.034,0.142-0.066,0.284-0.108,0.432c0.476,0.136,0.956,0.254,1.437,0.374  c0.018,0.138,0.037,0.274,0.061,0.422c0.678,0.306,1.269,0.775,1.948,1.083c0.537,0.232,0.614,0.874,0.923,1.304  c0.654,0.81,0.963,1.847,1.066,2.878c0.008,0.253,0.253,0.384,0.426,0.532c0.052,0.495,0.095,0.996,0.233,1.477  c0.169-0.227,0.342-0.471,0.462-0.733c0.941-2.306,1.674-4.685,2.637-6.977c0.071-0.342,0.585-0.298,0.744-0.044  c0.72,1.024,2.029,1.343,2.908,2.188c0.324,0.327,0.64,0.656,0.996,0.947c3.394,2.184,6.096,5.256,9.562,7.34  c0.561,0.313,0.866,0.975,1.494,1.178c0.644,0.208,1.033,0.789,1.517,1.218c0.05-0.181,0.106-0.349,0.155-0.53  c0.39,0.513,0.733,1.085,1.272,1.451c-0.039-0.475-0.162-0.953-0.314-1.414c0.325,0.325,0.649,0.651,0.993,0.963  c-0.082-1.193-0.723-2.241-1.155-3.323c0.351,0.322,0.71,0.638,1.083,0.933c-0.167-1.113-0.896-2.023-1.445-2.967  c-1.241-2.053-2.759-3.918-4.174-5.862c-1.102-1.286-2.557-2.231-4.019-3.077c-1.214-0.798-2.42-1.601-3.559-2.514  c0.342-0.683,0.614-1.106,1.022-1.503c0.113,0.158,0.217,0.325,0.34,0.479c0.028-0.412-0.038-0.884-0.453-1.071  c-0.971-0.841-2.46-0.086-3.373-1.004c-0.395-0.308-0.571-0.807-0.787-1.24c-0.605-1.272-1.178-2.58-1.59-3.931  C21.807,20.539,21,18.987,19.7,17.879c-1.432-1.298-2.752-2.718-4.284-3.913c-1.323-1.014-2.421-2.276-3.671-3.39  c0.036,0.601,0.413,1.095,0.658,1.618C11.294,11.372,10.337,10.359,9.152,9.653z"></path><path fill="#000000" stroke="#010101" stroke-width="0.0215" d="M16.923,17.357c0.064-0.038,0.142-0.05,0.229-0.025  c0.568,0.065,1.135,0.17,1.667,0.394c0.559,0.247,0.756,0.907,1.209,1.287c0.311,0.281,0.755,0.408,0.986,0.777  c0.408,0.87,0.469,1.859,0.925,2.697c0.561,1.069,1.131,2.133,1.626,3.231c0.349,0.688,0.58,1.559,1.371,1.89  c0.978,0.484,1.961,0.954,2.97,1.378c-0.324,0.5-0.653,0.99-0.917,1.52c1.439,1.157,2.971,2.203,4.404,3.351  c0.644,0.641,1.606,0.688,2.253,1.312c0.455,0.446,0.786,0.998,1.188,1.49c0.222,0.335,0.574,0.616,0.603,1.031  c0.086,0.419-0.383,0.685-0.567,0.977c0.129,0.014,0.25,0.032,0.38,0.046c-0.025,0.111-0.061,0.228-0.081,0.348  c-1.615,0.035-2.897-1.087-4.195-1.886c-1.296-0.909-2.741-1.575-4.14-2.298c-0.632-0.581-1.465-0.831-2.273-1.042  c0.012-0.295,0.048-0.62-0.31-0.714c-0.358-0.091-1.264-0.333-1.895-0.087c-1.134,0.437-2.136,1.17-3.297,1.543  c-0.835,0.265-1.647,0.57-2.456,0.899c-0.256-0.26-0.528-0.522-0.801-0.786c0.587-1.422,1.471-2.758,2.772-3.597  c0.435-0.406,0.865-0.82,0.962-1.575c0.038-0.685-0.016-0.815,0.006-1.208c0.011-0.373,0.042-0.758-0.065-1.124  c-0.096-0.306-0.37-0.527-0.411-0.852c-0.023-0.735-0.24-1.43-0.429-2.073c-0.355-0.982-0.341-2.086-0.877-3.009  c-0.361-1.141-0.995-2.219-1.038-3.437C16.702,17.644,16.78,17.44,16.923,17.357L16.923,17.357z"></path><path fill="#000000" stroke="#010101" stroke-width="0.0215" d="M27.42,28.202c0.077-0.05,0.116,0.042,0.153,0.183  c-0.126,0.146-0.258,0.125-0.296-0.067c0.029-0.038,0.075-0.108,0.1-0.124L27.42,28.202z"></path><path fill="#000000" stroke="#010101" stroke-width="0.0215" d="M50.85,45.688c0.466,0.989,1.31,1.682,2.035,2.448  c-0.871-0.391-1.681-0.89-2.517-1.338c-0.079,0.042-0.217,0.13-0.296,0.172c0.824,1.007,1.277,2.273,2.235,3.165  c-0.124,0.17-0.238,0.334-0.37,0.494c1.19,1.035,2.028,2.376,2.853,3.698c0.956,1.504,2.407,2.658,3.206,4.284  c0.708,1.657,1.882,3.048,2.594,4.687c0.37,0.792,0.733,1.403,1.358,1.789c0.406,1.035,1.086,1.943,1.075,3.113  c-2.177,0.749-4.461,0.857-6.73,1.207c-1.573,0.271-3.246,0.051-4.771,0.599c0.633,0.535,1.467,0.562,2.259,0.397  c0.551,0.723,1.486,0.861,2.335,0.736c-0.024,0.159-0.046,0.317-0.081,0.483c0.534,0.107,1.071,0.194,1.609,0.283  c0.032,0.149,0.063,0.299,0.104,0.459c0.77,0.275,1.459,0.738,2.229,1.017c0.608,0.206,0.751,0.904,1.127,1.348  c0.787,0.831,1.217,1.939,1.421,3.061c0.03,0.276,0.311,0.399,0.514,0.546c0.101,0.539,0.19,1.085,0.386,1.599  c0.163-0.264,0.333-0.545,0.439-0.843c0.829-2.61,1.426-5.282,2.279-7.88c0.049-0.381,0.616-0.377,0.812-0.114  c0.879,1.061,2.343,1.295,3.379,2.145c0.386,0.329,0.76,0.662,1.177,0.95c3.91,2.096,7.142,5.228,11.124,7.208  c0.642,0.294,1.034,0.992,1.74,1.16c0.723,0.17,1.201,0.773,1.769,1.201c0.039-0.202,0.087-0.393,0.125-0.595  c0.473,0.528,0.898,1.125,1.521,1.479c-0.084-0.518-0.261-1.03-0.469-1.521c0.385,0.326,0.771,0.656,1.174,0.969  c-0.194-1.302-0.987-2.393-1.557-3.542c0.411,0.322,0.834,0.638,1.27,0.929c-0.282-1.206-1.162-2.141-1.847-3.125  c-1.539-2.143-3.365-4.055-5.088-6.061c-1.321-1.313-3-2.222-4.675-3.02c-1.401-0.769-2.794-1.543-4.121-2.444  c0.315-0.777,0.577-1.267,0.988-1.737c0.139,0.165,0.268,0.339,0.417,0.494c-0.007-0.452-0.12-0.965-0.593-1.133  c-1.139-0.837-2.704,0.119-3.783-0.807c-0.462-0.303-0.698-0.834-0.973-1.289c-0.774-1.342-1.516-2.726-2.089-4.17  c-0.77-1.677-1.789-3.307-3.312-4.407c-1.684-1.297-3.256-2.739-5.039-3.915c-1.537-0.995-2.854-2.283-4.321-3.392  c0.094,0.654,0.549,1.163,0.864,1.714C53.349,47.385,52.21,46.358,50.85,45.688z"></path><path fill="#000000" stroke="#010101" stroke-width="0.0215" d="M60.043,53.453c0.065-0.049,0.151-0.068,0.249-0.05  c0.628,0.021,1.259,0.088,1.862,0.286c0.634,0.221,0.907,0.928,1.438,1.306c0.364,0.279,0.863,0.38,1.148,0.765  c0.522,0.918,0.678,1.997,1.252,2.875c0.708,1.124,1.425,2.24,2.064,3.4c0.443,0.725,0.773,1.657,1.669,1.951  c1.114,0.445,2.232,0.875,3.377,1.251c-0.313,0.576-0.63,1.143-0.873,1.746c1.681,1.143,3.45,2.154,5.123,3.285  c0.76,0.647,1.819,0.615,2.584,1.241c0.536,0.45,0.948,1.024,1.433,1.529c0.271,0.349,0.682,0.625,0.75,1.078  c0.133,0.452-0.36,0.785-0.534,1.12c0.143,0.004,0.276,0.013,0.419,0.018c-0.018,0.123-0.046,0.255-0.058,0.388  c-1.767,0.181-3.27-0.937-4.762-1.699c-1.501-0.882-3.144-1.486-4.739-2.156c-0.744-0.581-1.68-0.782-2.584-0.941  c-0.014-0.326-0.002-0.685-0.402-0.757c-0.4-0.068-1.414-0.254-2.084,0.072c-1.207,0.577-2.239,1.469-3.479,1.979  c-0.894,0.364-1.756,0.77-2.614,1.201c-0.304-0.264-0.625-0.526-0.947-0.792c0.52-1.608,1.369-3.149,2.723-4.186  c0.442-0.484,0.878-0.974,0.918-1.81c-0.019-0.754-0.088-0.894-0.101-1.325c-0.021-0.408-0.019-0.833-0.168-1.225  c-0.134-0.326-0.451-0.545-0.526-0.897c-0.089-0.804-0.387-1.548-0.65-2.234c-0.476-1.046-0.558-2.259-1.226-3.223  c-0.497-1.22-1.285-2.346-1.44-3.677C59.824,53.787,59.894,53.557,60.043,53.453L60.043,53.453z"></path><path fill="#000000" stroke="#010101" stroke-width="0.0215" d="M72.499,64.419c0.079-0.062,0.132,0.036,0.184,0.188  c-0.124,0.171-0.27,0.159-0.33-0.048c0.029-0.044,0.071-0.125,0.1-0.145L72.499,64.419z"></path><path fill="#000000" stroke="#010101" stroke-width="0.0215" d="M8.639,46.927c0.647,0.606,1.49,0.877,2.266,1.237  c-0.773-0.034-1.533-0.168-2.296-0.257c-0.047,0.056-0.125,0.163-0.172,0.218c0.922,0.514,1.642,1.333,2.632,1.719  c-0.043,0.166-0.081,0.323-0.133,0.482c1.207,0.425,2.24,1.187,3.255,1.936c1.171,0.849,2.611,1.285,3.697,2.272  c1.03,1.037,2.33,1.735,3.357,2.758c0.515,0.487,0.971,0.84,1.559,0.942c0.615,0.66,1.398,1.142,1.74,2.027  c-1.417,1.215-3.106,1.979-4.714,2.92c-1.105,0.675-2.432,1.009-3.417,1.878c0.637,0.215,1.274-0.016,1.822-0.375  c0.631,0.381,1.377,0.205,1.98-0.143c0.029,0.126,0.059,0.253,0.084,0.388c0.434-0.079,0.865-0.173,1.296-0.267  c0.068,0.104,0.138,0.206,0.215,0.314c0.663-0.022,1.321,0.121,1.985,0.101c0.521-0.026,0.835,0.457,1.251,0.68  c0.842,0.391,1.498,1.099,1.986,1.883c0.105,0.199,0.354,0.208,0.55,0.259c0.237,0.375,0.468,0.76,0.768,1.09  c0.046-0.249,0.089-0.511,0.081-0.768c-0.155-2.216-0.504-4.408-0.636-6.622c-0.079-0.301,0.351-0.469,0.577-0.328  c0.98,0.537,2.152,0.276,3.189,0.606c0.387,0.133,0.77,0.271,1.169,0.365c3.575,0.412,6.947,1.807,10.541,2.109  c0.572,0.031,1.076,0.44,1.659,0.355c0.597-0.087,1.138,0.226,1.693,0.377c-0.031-0.164-0.054-0.32-0.084-0.484  c0.513,0.258,1.012,0.579,1.588,0.66c-0.219-0.364-0.504-0.7-0.809-1.008c0.391,0.132,0.777,0.265,1.174,0.38  c-0.533-0.923-1.46-1.509-2.231-2.204c0.407,0.119,0.821,0.23,1.235,0.32c-0.573-0.825-1.516-1.267-2.325-1.806  c-1.801-1.154-3.75-2.05-5.648-3.048c-1.388-0.597-2.924-0.779-4.426-0.88c-1.286-0.161-2.567-0.329-3.837-0.611  c0.005-0.681,0.056-1.127,0.226-1.605c0.154,0.083,0.302,0.175,0.461,0.25c-0.14-0.341-0.378-0.693-0.784-0.68  c-1.108-0.29-2.003,0.899-3.095,0.523c-0.437-0.091-0.775-0.42-1.118-0.683c-0.985-0.779-1.958-1.601-2.819-2.52  c-1.082-1.033-2.339-1.957-3.815-2.332c-1.657-0.476-3.273-1.093-4.969-1.446c-1.458-0.29-2.834-0.868-4.272-1.267  c0.266,0.466,0.761,0.714,1.164,1.036C11.029,47.459,9.865,47.025,8.639,46.927z"></path><path fill="#000000" stroke="#010101" stroke-width="0.0215" d="M17.889,50.033c0.037-0.056,0.094-0.097,0.174-0.11  c0.48-0.173,0.975-0.311,1.489-0.341c0.544-0.024,0.962,0.428,1.474,0.554c0.359,0.102,0.765,0.028,1.095,0.233  c0.668,0.536,1.107,1.303,1.802,1.794c0.869,0.636,1.744,1.263,2.573,1.946c0.55,0.413,1.078,1.02,1.84,0.973  c0.974,0.003,1.945-0.008,2.92-0.066c-0.062,0.528-0.133,1.05-0.136,1.577c1.608,0.36,3.245,0.594,4.844,0.948  c0.767,0.259,1.556-0.083,2.32,0.163c0.54,0.178,1.021,0.488,1.537,0.725c0.31,0.181,0.701,0.268,0.888,0.588  c0.233,0.301-0.038,0.699-0.069,1.004c0.109-0.039,0.213-0.072,0.322-0.112c0.023,0.1,0.041,0.206,0.073,0.31  c-1.279,0.664-2.746,0.271-4.099,0.143c-1.395-0.217-2.814-0.182-4.217-0.21c-0.735-0.215-1.5-0.088-2.23,0.062  c-0.106-0.24-0.206-0.515-0.528-0.449c-0.323,0.067-1.143,0.23-1.551,0.676c-0.735,0.796-1.249,1.778-2.031,2.533  c-0.564,0.54-1.094,1.104-1.611,1.686c-0.308-0.106-0.629-0.211-0.951-0.313c-0.089-1.368,0.092-2.785,0.803-3.97  c0.188-0.497,0.37-0.996,0.15-1.639c-0.24-0.562-0.333-0.646-0.471-0.969c-0.138-0.303-0.265-0.622-0.494-0.873  c-0.197-0.206-0.503-0.275-0.665-0.52c-0.307-0.58-0.754-1.051-1.159-1.49c-0.671-0.646-1.094-1.535-1.887-2.063  c-0.738-0.771-1.669-1.384-2.183-2.342C17.825,50.35,17.808,50.156,17.889,50.033L17.889,50.033z"></path><path fill="#000000" stroke="#010101" stroke-width="0.0215" d="M30.558,54.58c0.042-0.07,0.11-0.013,0.194,0.085  c-0.042,0.167-0.156,0.201-0.263,0.063c0.008-0.042,0.018-0.115,0.031-0.138L30.558,54.58z"></path><path fill="#000000" stroke="#010101" stroke-width="0.0215" d="M37.371,78.427c0.513,0.483,1.183,0.699,1.799,0.988  c-0.615-0.028-1.218-0.138-1.825-0.209c-0.037,0.044-0.1,0.129-0.137,0.173c0.732,0.41,1.303,1.062,2.089,1.371  c-0.035,0.132-0.064,0.256-0.106,0.384c0.958,0.339,1.778,0.947,2.584,1.545c0.93,0.676,2.073,1.024,2.936,1.812  c0.816,0.826,1.848,1.385,2.663,2.199c0.408,0.388,0.771,0.668,1.237,0.752c0.487,0.525,1.109,0.909,1.379,1.614  c-1.129,0.963-2.473,1.566-3.752,2.312c-0.881,0.534-1.936,0.797-2.72,1.486c0.506,0.172,1.013-0.011,1.448-0.295  c0.502,0.303,1.096,0.165,1.575-0.11c0.022,0.101,0.046,0.201,0.065,0.309c0.346-0.061,0.688-0.136,1.031-0.209  c0.055,0.082,0.109,0.164,0.171,0.25c0.526-0.017,1.05,0.099,1.578,0.084c0.413-0.02,0.663,0.365,0.993,0.543  c0.668,0.311,1.188,0.876,1.575,1.5c0.084,0.158,0.28,0.166,0.438,0.207C52.578,95.432,52.762,95.736,53,96  c0.037-0.197,0.07-0.406,0.065-0.611c-0.119-1.76-0.394-3.504-0.493-5.264c-0.062-0.239,0.279-0.371,0.459-0.26  c0.777,0.428,1.711,0.224,2.533,0.487c0.309,0.107,0.612,0.219,0.93,0.293c2.842,0.334,5.519,1.448,8.375,1.696  c0.454,0.025,0.855,0.352,1.318,0.285c0.475-0.068,0.902,0.181,1.345,0.303c-0.025-0.131-0.041-0.255-0.066-0.386  c0.408,0.205,0.805,0.463,1.263,0.528c-0.174-0.291-0.4-0.558-0.642-0.804c0.309,0.106,0.617,0.213,0.933,0.305  c-0.424-0.734-1.157-1.202-1.771-1.756c0.324,0.096,0.651,0.186,0.98,0.257c-0.452-0.657-1.201-1.01-1.845-1.439  c-1.429-0.921-2.977-1.636-4.483-2.434c-1.102-0.476-2.323-0.623-3.517-0.707c-1.021-0.13-2.04-0.266-3.049-0.493  c0.005-0.542,0.046-0.896,0.183-1.275c0.122,0.066,0.239,0.14,0.365,0.199c-0.11-0.271-0.3-0.552-0.622-0.541  c-0.88-0.232-1.594,0.711-2.461,0.41c-0.348-0.072-0.615-0.335-0.887-0.544c-0.781-0.622-1.553-1.276-2.236-2.009  c-0.858-0.823-1.855-1.56-3.029-1.861c-1.316-0.38-2.6-0.873-3.946-1.157c-1.158-0.234-2.25-0.695-3.393-1.016  c0.21,0.371,0.604,0.568,0.923,0.826C39.27,78.854,38.345,78.507,37.371,78.427z"></path><path fill="#000000" stroke="#010101" stroke-width="0.0215" d="M44.719,80.913c0.028-0.045,0.074-0.076,0.137-0.088  c0.383-0.136,0.777-0.245,1.186-0.269c0.432-0.018,0.764,0.342,1.17,0.443c0.285,0.082,0.608,0.024,0.871,0.188  c0.529,0.426,0.877,1.037,1.428,1.428c0.69,0.507,1.385,1.008,2.043,1.552c0.436,0.33,0.854,0.812,1.461,0.776  c0.773,0.005,1.546-0.002,2.32-0.047c-0.051,0.42-0.107,0.834-0.11,1.254c1.276,0.288,2.578,0.478,3.849,0.762  c0.609,0.208,1.236-0.062,1.843,0.135c0.429,0.143,0.811,0.39,1.221,0.578c0.246,0.145,0.558,0.214,0.705,0.47  c0.186,0.239-0.031,0.555-0.057,0.798c0.087-0.032,0.169-0.058,0.256-0.09c0.019,0.079,0.033,0.165,0.058,0.247  c-1.018,0.525-2.184,0.211-3.259,0.105c-1.108-0.175-2.235-0.149-3.352-0.174c-0.583-0.173-1.192-0.073-1.772,0.045  c-0.085-0.192-0.163-0.411-0.42-0.358c-0.256,0.054-0.908,0.181-1.234,0.534c-0.586,0.632-0.995,1.41-1.619,2.009  c-0.448,0.43-0.871,0.877-1.283,1.339c-0.244-0.087-0.5-0.17-0.756-0.252c-0.068-1.087,0.078-2.214,0.646-3.153  c0.15-0.395,0.295-0.791,0.121-1.303c-0.188-0.447-0.264-0.515-0.371-0.771c-0.109-0.24-0.21-0.494-0.392-0.694  c-0.156-0.165-0.399-0.22-0.527-0.414c-0.243-0.461-0.598-0.837-0.919-1.188c-0.531-0.514-0.866-1.222-1.496-1.644  c-0.584-0.613-1.324-1.103-1.73-1.865C44.666,81.164,44.653,81.011,44.719,80.913L44.719,80.913z"></path><path fill="#000000" stroke="#010101" stroke-width="0.0215" d="M54.779,84.549c0.033-0.055,0.088-0.009,0.155,0.07  c-0.034,0.132-0.125,0.159-0.21,0.05c0.007-0.034,0.014-0.093,0.025-0.111L54.779,84.549z"></path><path fill="#000000" stroke="#010101" stroke-width="0.0215" d="M8.241,77.139c0.407,0.384,0.938,0.557,1.428,0.785  c-0.489-0.022-0.968-0.108-1.45-0.166c-0.03,0.035-0.079,0.103-0.109,0.138c0.582,0.326,1.035,0.844,1.659,1.088  c-0.027,0.105-0.051,0.203-0.084,0.306c0.761,0.269,1.412,0.752,2.052,1.227c0.738,0.537,1.646,0.813,2.331,1.438  c0.648,0.656,1.467,1.1,2.115,1.746c0.324,0.308,0.612,0.531,0.982,0.598c0.387,0.417,0.881,0.722,1.095,1.282  c-0.896,0.764-1.963,1.243-2.979,1.836c-0.7,0.425-1.537,0.633-2.16,1.18c0.401,0.137,0.804-0.009,1.15-0.234  c0.398,0.24,0.87,0.132,1.25-0.087c0.018,0.079,0.037,0.16,0.052,0.244c0.274-0.047,0.546-0.106,0.818-0.166  c0.044,0.066,0.087,0.131,0.136,0.199c0.418-0.013,0.834,0.079,1.253,0.066c0.328-0.016,0.527,0.291,0.789,0.432  c0.53,0.246,0.943,0.696,1.251,1.191c0.066,0.125,0.223,0.131,0.348,0.164c0.147,0.237,0.293,0.479,0.482,0.688  c0.03-0.157,0.056-0.323,0.052-0.485c-0.094-1.397-0.312-2.783-0.392-4.18c-0.049-0.19,0.222-0.295,0.365-0.207  c0.617,0.34,1.358,0.179,2.012,0.388c0.245,0.086,0.486,0.174,0.738,0.232c2.256,0.266,4.382,1.149,6.651,1.347  c0.36,0.021,0.679,0.279,1.047,0.227c0.376-0.055,0.716,0.144,1.067,0.24c-0.021-0.104-0.032-0.202-0.053-0.306  c0.324,0.162,0.639,0.367,1.003,0.419c-0.138-0.23-0.318-0.442-0.51-0.638c0.245,0.085,0.49,0.169,0.74,0.242  c-0.336-0.584-0.918-0.954-1.405-1.395c0.257,0.076,0.517,0.146,0.778,0.204c-0.359-0.522-0.954-0.803-1.465-1.143  c-1.135-0.731-2.363-1.3-3.561-1.934c-0.874-0.378-1.845-0.494-2.792-0.561c-0.812-0.104-1.62-0.211-2.421-0.392  c0.004-0.431,0.036-0.712,0.145-1.014c0.097,0.053,0.19,0.111,0.29,0.158c-0.087-0.215-0.238-0.438-0.494-0.43  c-0.698-0.184-1.265,0.564-1.954,0.326c-0.275-0.057-0.488-0.267-0.704-0.433c-0.62-0.493-1.232-1.013-1.775-1.595  c-0.682-0.653-1.474-1.237-2.405-1.479c-1.046-0.302-2.064-0.693-3.134-0.919c-0.919-0.186-1.788-0.551-2.695-0.806  c0.168,0.294,0.479,0.451,0.734,0.655C9.748,77.479,9.014,77.203,8.241,77.139z"></path><path fill="#000000" stroke="#010101" stroke-width="0.0215" d="M14.075,79.113c0.022-0.035,0.059-0.061,0.109-0.07  c0.304-0.106,0.617-0.194,0.941-0.212c0.343-0.014,0.606,0.271,0.929,0.352c0.227,0.064,0.483,0.019,0.691,0.149  c0.421,0.338,0.696,0.824,1.134,1.135c0.549,0.401,1.1,0.799,1.623,1.231c0.346,0.262,0.678,0.645,1.16,0.616  c0.614,0.005,1.228-0.002,1.843-0.037c-0.04,0.334-0.085,0.662-0.088,0.996c1.014,0.229,2.048,0.379,3.057,0.605  c0.483,0.165,0.981-0.051,1.463,0.105c0.341,0.113,0.644,0.31,0.97,0.459c0.195,0.115,0.442,0.171,0.56,0.374  c0.147,0.19-0.024,0.439-0.045,0.634c0.069-0.026,0.135-0.046,0.203-0.072c0.015,0.063,0.026,0.132,0.046,0.196  c-0.808,0.418-1.734,0.168-2.588,0.084c-0.88-0.139-1.774-0.118-2.661-0.139c-0.463-0.136-0.947-0.058-1.407,0.037  c-0.067-0.153-0.13-0.327-0.334-0.285c-0.203,0.043-0.721,0.143-0.98,0.424c-0.465,0.502-0.791,1.12-1.286,1.595  c-0.356,0.342-0.691,0.697-1.019,1.063c-0.194-0.069-0.397-0.135-0.6-0.199c-0.055-0.864,0.062-1.759,0.514-2.505  c0.119-0.312,0.233-0.627,0.096-1.034c-0.149-0.354-0.209-0.408-0.295-0.612c-0.087-0.191-0.166-0.393-0.311-0.552  c-0.124-0.131-0.317-0.175-0.419-0.328c-0.193-0.367-0.475-0.665-0.729-0.943c-0.422-0.408-0.688-0.97-1.188-1.306  c-0.463-0.486-1.051-0.875-1.374-1.48C14.034,79.313,14.023,79.191,14.075,79.113L14.075,79.113z"></path><path fill="#000000" stroke="#010101" stroke-width="0.0215" d="M22.064,82.001c0.026-0.043,0.07-0.007,0.123,0.055  c-0.026,0.105-0.099,0.128-0.166,0.04c0.005-0.026,0.011-0.073,0.02-0.088L22.064,82.001z"></path></svg>